<?xml version="1.0" encoding="utf-8"?>
<!-- Generator: Adobe Illustrator 22.0.1, SVG Export Plug-In . SVG Version: 6.00 Build 0)  -->
<svg version="1.1" id="Layer_1" xmlns="http://www.w3.org/2000/svg" xmlns:xlink="http://www.w3.org/1999/xlink" x="0px" y="0px"
	 viewBox="0 0 1920 1080" style="enable-background:new 0 0 1920 1080;" xml:space="preserve">
<style type="text/css">
	.st0{fill:#333333;stroke:#000000;stroke-width:13;stroke-miterlimit:10;}
	.st1{fill:#F9E43F;}
	.st2{fill:none;stroke:#000000;stroke-width:13;stroke-linecap:round;stroke-miterlimit:10;}
	.st3{fill-rule:evenodd;clip-rule:evenodd;fill:none;stroke:#000000;stroke-width:13;stroke-linecap:round;stroke-miterlimit:10;}
	.st4{fill:#B3B3B3;stroke:#000000;stroke-width:10;stroke-miterlimit:10;}
	.st5{fill:#FFFFFF;stroke:#000000;stroke-width:5;stroke-miterlimit:10;}
	.st6{fill:#AC1F23;stroke:#000000;stroke-width:5;stroke-miterlimit:10;}
</style>
<path class="st0" d="M1220.5,518.5c81,0.5,144.8,34.8,153,75c14.6,71.9-153,144-160,135c-6.2-8,109.4-87.2,92-126
	c-9.3-20.7-52.9-21.5-88-19C1218.5,561.8,1219.5,540.2,1220.5,518.5z"/>
<path class="st0" d="M835.5,800.5c-2.9,11.5-7,30.4-9,54c-3.8,45.5,3.7,70-9,78c-13,8.2-28.1-12.7-50-7c-27.6,7.2-48.2,51.9-37,68
	c9.2,13.2,44.4,13.4,142-26c-4.3-23.2-7.8-54.4-5-91c2.4-31.2,8.6-57.7,15-78C866.8,799.2,851.2,799.8,835.5,800.5z"/>
<path class="st0" d="M1069.4,777.5c2.9,11.5,7,30.4,9,54c3.8,45.5-3.7,70,9,78c13,8.2,28.1-12.7,50-7c27.6,7.2,48.2,51.9,37,68
	c-9.2,13.2-44.4,13.4-142-26c4.3-23.2,7.8-54.4,5-91c-2.4-31.2-8.6-57.7-15-78C1038.1,776.2,1053.7,776.8,1069.4,777.5z"/>
<g>
	<path class="st1" d="M657.5,270c0.2,0,0.3,0,0.5,0c100.4,0,202,3.9,302.1,11.5c102,7.8,205,19.6,306.2,35.3
		c-20.9,73.2-36.3,148.5-45.7,223.9c-9,72.4-12.6,146.1-10.7,219l-515.3,60.5L657.5,270z"/>
	<path d="M664.4,276.5c98.1,0.2,197.3,4,295.1,11.5c99.4,7.6,199.8,19,298.4,34.1c-20,71.2-34.7,144.4-43.8,217.8
		c-8.8,70.8-12.4,142.7-10.9,214.1l-502.6,59L664.4,276.5 M657.9,263.5c-2.5,0-5,0-7.4,0c12.7,188,25.3,376,38,564
		c176-20.7,352-41.3,528-62c-1.9-64.7,0.1-140.3,10.5-224c10.9-88.1,28.6-165.4,47.5-230c-96.9-15.2-201.8-28-314-36.5
		C853.4,266.8,752.2,263.5,657.9,263.5L657.9,263.5z"/>
</g>
<g>
	<line class="st2" x1="883.6" y1="396.8" x2="808.2" y2="505.5"/>
</g>
<g>
	<line class="st2" x1="808.2" y1="396.8" x2="883.6" y2="505.5"/>
</g>
<g>
	<line class="st2" x1="1126.1" y1="396.8" x2="1050.7" y2="505.5"/>
</g>
<g>
	<line class="st2" x1="1050.7" y1="396.8" x2="1126.1" y2="505.5"/>
</g>
<path class="st3" d="M857.7,691c1.2-3.3,23.6-61.9,82.8-73.9c47.8-9.7,98.8,15.3,123.5,62.1"/>
<path class="st0" d="M672.5,518.5c-84.6,30-128.3,55.5-153,75c-8.1,6.4-30.3,24.9-52,19c-11.1-3-18.5-11.5-23-18
	c-12-10.4-28.6-12.7-42-6c-16.5,8.3-19.7,26.2-20,28c0.7,14.7,1.3,29.3,2,44c1.3,2.7,10.6,21.9,30,26c20.8,4.4,45.2-10.4,54-37
	c30.4-4.5,65.6-11.9,104-24c40.2-12.7,74.7-27.6,103-42C674.5,561.8,673.5,540.2,672.5,518.5z"/>
<path class="st4" d="M385.5,411.5C397.7,592.7,409.8,773.8,422,955c14.3,0,28.7,0,43,0c-11.2-184.2-22.3-368.3-33.5-552.5
	c32.7-14,65.3-28,98-42c3-40.3,6-80.7,9-121c-26.3-27-52.7-54-79-81c-62,4-124,8-186,12c-18,36.3-36,72.7-54,109c15,35,30,70,45,105
	C304.8,393.5,345.2,402.5,385.5,411.5z"/>
<path class="st5" d="M384.5,392c13-2.5,25.9-5.1,38.9-7.6c27.6-11.8,55.3-23.7,82.9-35.5c2.5-34.1,5.1-68.2,7.6-102.3
	c-22.3-22.8-44.5-45.7-66.8-68.5c-52.4,3.4-104.9,6.8-157.3,10.2c-15.2,30.7-30.5,61.5-45.7,92.2c12.7,29.6,25.4,59.2,38.1,88.8
	C316.3,376.8,350.4,384.4,384.5,392z"/>
<path class="st6" d="M282.5,232.5c-3.3,18-6.7,36-10,54c12.7,1,25.3,2,38,3c-1.7,18.3-3.3,36.7-5,55c7-0.7,14-1.3,21-2
	c4-36.7,8-73.3,12-110c-6.3,0.3-12.7,0.7-19,1c-2,13-4,26-6,39c-5.7,0.3-11.3,0.7-17,1c1.7-14.3,3.3-28.7,5-43
	C295.2,231.2,288.8,231.8,282.5,232.5z"/>
<path class="st6" d="M427.5,223.5c-3.3,18-6.7,36-10,54c12.7,1,25.3,2,38,3c-1.7,18.3-3.3,36.7-5,55c7-0.7,14-1.3,21-2
	c4-36.7,8-73.3,12-110c-6.3,0.3-12.7,0.7-19,1c-2,13-4,26-6,39c-5.7,0.3-11.3,0.7-17,1c1.7-14.3,3.3-28.7,5-43
	C440.2,222.2,433.8,222.8,427.5,223.5z"/>
<path class="st6" d="M366.5,237.5c10.3-1,20.7-2,31-3c4.3,10.7,8.7,21.3,13,32c0,12,0,24,0,36c-4.7,10-9.3,20-14,30
	c-9.7-0.3-19.3-0.7-29-1c-6-8.7-12-17.3-18-26c2-15,4-30,6-45C359.2,252.8,362.8,245.2,366.5,237.5z"/>
<path class="st5" d="M373.2,258.6c5.6-0.5,11.2-1.1,16.8-1.6c2.3,5.8,4.7,11.5,7,17.3c0,6.5,0,13,0,19.5c-2.5,5.4-5,10.8-7.6,16.2
	c-5.2-0.2-10.5-0.4-15.7-0.5c-3.2-4.7-6.5-9.4-9.7-14.1c1.1-8.1,2.2-16.2,3.2-24.3C369.2,266.9,371.2,262.8,373.2,258.6z"/>
</svg>
